<svg viewBox="0 0 122 39" id="svg1233649250"><g transform="translate(1.019 0.988)"><path d="M 0 39 L 0 0 L 120.658 0 L 120.658 39 Z" fill="transparent"></path><g transform="translate(3.014 5.512)"><path d="M 0.005 25.999 L 0.005 0 L 40.252 0 L 40.252 25.999 Z" fill="transparent"></path><path d="M 13.416 26.001 L 17.489 26.001 L 16.303 24.852 C 15.989 24.547 15.562 24.376 15.118 24.376 L 13.416 24.376 C 6.933 24.376 1.677 19.283 1.677 13.001 C 1.677 6.719 6.933 1.626 13.416 1.626 L 26.832 1.626 C 33.315 1.626 38.57 6.719 38.57 13.001 C 38.57 19.283 33.315 24.376 26.832 24.376 L 21.813 24.376 C 21.146 24.376 20.506 24.119 20.034 23.662 L 18.645 22.316 C 17.859 21.554 16.792 21.126 15.68 21.126 L 13.416 21.126 C 8.785 21.126 5.031 17.488 5.031 13.001 C 5.031 8.514 8.785 4.876 13.416 4.876 L 26.832 4.876 C 31.463 4.876 35.216 8.514 35.216 13.001 C 35.216 17.488 31.463 21.126 26.832 21.126 L 23.609 21.126 C 22.942 21.126 22.302 20.869 21.83 20.412 L 20.441 19.066 C 19.655 18.304 18.589 17.876 17.477 17.876 L 13.416 17.876 C 10.637 17.876 8.385 15.693 8.385 13.001 C 8.385 10.309 10.637 8.126 13.416 8.126 L 26.832 8.126 C 29.61 8.126 31.863 10.309 31.863 13.001 C 31.863 15.66 29.665 17.823 26.933 17.875 L 26.933 17.876 L 25.705 17.876 C 25.038 17.876 24.398 17.619 23.927 17.162 L 22.537 15.816 C 21.892 15.191 21.059 14.79 20.166 14.667 L 20.124 14.626 L 13.416 14.626 C 12.49 14.626 11.739 13.898 11.739 13.001 C 11.739 12.104 12.49 11.376 13.416 11.376 L 26.832 11.376 C 27.758 11.376 28.509 12.104 28.509 13.001 C 28.509 13.898 27.758 14.626 26.832 14.626 L 23.478 14.626 L 24.663 15.775 C 24.978 16.08 25.405 16.251 25.849 16.251 L 26.832 16.251 C 28.684 16.251 30.186 14.796 30.186 13.001 C 30.186 11.206 28.684 9.751 26.832 9.751 L 13.416 9.751 C 11.564 9.751 10.062 11.206 10.062 13.001 C 10.062 14.796 11.564 16.251 13.416 16.251 L 19.573 16.251 C 20.24 16.251 20.88 16.508 21.352 16.965 L 22.741 18.311 C 23.527 19.073 24.594 19.501 25.705 19.501 L 27.251 19.501 L 27.251 19.488 C 30.76 19.279 33.54 16.454 33.54 13.001 C 33.54 9.411 30.536 6.501 26.832 6.501 L 13.416 6.501 C 9.711 6.501 6.708 9.411 6.708 13.001 C 6.708 16.591 9.711 19.501 13.416 19.501 L 17.477 19.501 C 18.144 19.501 18.784 19.758 19.255 20.215 L 20.645 21.561 C 21.431 22.323 22.497 22.751 23.609 22.751 L 26.832 22.751 C 32.389 22.751 36.894 18.386 36.894 13.001 C 36.894 7.616 32.389 3.251 26.832 3.251 L 13.416 3.251 C 7.859 3.251 3.354 7.616 3.354 13.001 C 3.354 18.386 7.859 22.751 13.416 22.751 L 15.68 22.751 C 16.348 22.751 16.988 23.008 17.459 23.465 L 18.849 24.811 C 19.635 25.573 20.701 26.001 21.813 26.001 L 26.832 26.001 C 34.241 26.001 40.247 20.18 40.247 13.001 C 40.247 5.821 34.241 0.001 26.832 0.001 L 13.416 0.001 C 6.006 0.001 0 5.821 0 13.001 C 0 20.18 6.006 26.001 13.416 26.001 Z" fill="var(--token-3ea41072-e4a3-4fbd-afee-986fdaa2559f, rgb(0, 0, 0)) /* {&quot;name&quot;:&quot;Black&quot;} */"></path></g><path d="M 115.195 29.033 C 113.968 29.033 113.037 28.745 112.402 28.171 C 111.767 27.576 111.449 26.602 111.449 25.249 L 111.449 7.992 L 114.909 7.992 L 114.909 24.941 C 114.909 25.515 115.015 25.905 115.227 26.11 C 115.439 26.315 115.756 26.418 116.179 26.418 C 116.687 26.418 117.174 26.356 117.64 26.233 L 117.64 28.663 C 117.238 28.807 116.846 28.899 116.465 28.94 C 116.105 29.002 115.682 29.033 115.195 29.033 Z" fill="var(--token-3ea41072-e4a3-4fbd-afee-986fdaa2559f, rgb(0, 0, 0)) /* {&quot;name&quot;:&quot;Black&quot;} */"></path><path d="M 108.111 29.033 C 106.883 29.033 105.952 28.745 105.317 28.171 C 104.682 27.576 104.365 26.602 104.365 25.249 L 104.365 7.992 L 107.825 7.992 L 107.825 24.941 C 107.825 25.515 107.931 25.905 108.142 26.11 C 108.354 26.315 108.672 26.418 109.095 26.418 C 109.603 26.418 110.089 26.356 110.555 26.233 L 110.555 28.663 C 110.153 28.807 109.761 28.899 109.381 28.94 C 109.021 29.002 108.597 29.033 108.111 29.033 Z" fill="var(--token-3ea41072-e4a3-4fbd-afee-986fdaa2559f, rgb(0, 0, 0)) /* {&quot;name&quot;:&quot;Black&quot;} */"></path><path d="M 92.707 29.033 C 91.755 29.033 90.866 28.868 90.041 28.54 C 89.237 28.212 88.591 27.72 88.104 27.064 C 87.618 26.387 87.374 25.557 87.374 24.572 C 87.374 23.178 87.861 22.06 88.835 21.219 C 89.829 20.358 91.353 19.927 93.406 19.927 L 98.231 19.927 L 98.231 19.281 C 98.231 18.584 98.115 18.03 97.882 17.62 C 97.67 17.21 97.268 16.913 96.676 16.728 C 96.104 16.543 95.258 16.451 94.136 16.451 C 92.358 16.451 90.697 16.708 89.152 17.22 L 89.152 14.729 C 89.829 14.462 90.655 14.247 91.628 14.083 C 92.602 13.919 93.649 13.837 94.771 13.837 C 96.972 13.837 98.644 14.267 99.787 15.129 C 100.951 15.99 101.533 17.395 101.533 19.343 L 101.533 28.725 L 98.58 28.725 L 98.358 27.248 C 97.744 27.823 96.983 28.263 96.072 28.571 C 95.184 28.879 94.062 29.033 92.707 29.033 Z M 93.628 26.633 C 94.665 26.633 95.565 26.469 96.326 26.141 C 97.109 25.792 97.744 25.331 98.231 24.757 L 98.231 22.204 L 93.469 22.204 C 92.454 22.204 91.713 22.398 91.247 22.788 C 90.803 23.157 90.581 23.731 90.581 24.511 C 90.581 25.269 90.845 25.813 91.374 26.141 C 91.903 26.469 92.655 26.633 93.628 26.633 Z" fill="var(--token-3ea41072-e4a3-4fbd-afee-986fdaa2559f, rgb(0, 0, 0)) /* {&quot;name&quot;:&quot;Black&quot;} */"></path><path d="M 83.353 29.032 C 81.744 29.032 80.538 28.622 79.734 27.802 C 78.951 26.961 78.559 25.823 78.559 24.387 L 78.559 16.759 L 76.337 16.759 L 76.337 14.144 L 78.559 14.144 L 78.559 10.791 L 81.988 9.776 L 81.988 14.144 L 85.988 14.144 L 85.766 16.759 L 81.988 16.759 L 81.988 24.203 C 81.988 25.044 82.189 25.638 82.591 25.987 C 82.993 26.315 83.649 26.479 84.559 26.479 C 85.131 26.479 85.734 26.377 86.369 26.172 L 86.369 28.54 C 85.543 28.868 84.538 29.032 83.353 29.032 Z" fill="var(--token-3ea41072-e4a3-4fbd-afee-986fdaa2559f, rgb(0, 0, 0)) /* {&quot;name&quot;:&quot;Black&quot;} */"></path><path d="M 74.269 29.033 C 73.041 29.033 72.11 28.745 71.475 28.171 C 70.84 27.576 70.523 26.602 70.523 25.249 L 70.523 7.992 L 73.983 7.992 L 73.983 24.941 C 73.983 25.515 74.089 25.905 74.3 26.11 C 74.512 26.315 74.829 26.418 75.253 26.418 C 75.761 26.418 76.247 26.356 76.713 26.233 L 76.713 28.663 C 76.311 28.807 75.919 28.899 75.538 28.94 C 75.179 29.002 74.755 29.033 74.269 29.033 Z" fill="var(--token-3ea41072-e4a3-4fbd-afee-986fdaa2559f, rgb(0, 0, 0)) /* {&quot;name&quot;:&quot;Black&quot;} */"></path><path d="M 50.309 28.725 L 58.119 8.915 L 61.992 8.915 L 69.737 28.725 L 66.182 28.725 L 64.15 23.619 L 55.928 23.619 L 53.897 28.725 Z M 56.468 21.035 L 63.579 21.035 L 60.023 11.96 Z" fill="var(--token-3ea41072-e4a3-4fbd-afee-986fdaa2559f, rgb(0, 0, 0)) /* {&quot;name&quot;:&quot;Black&quot;} */"></path></g></svg>
