<svg viewBox="0 0 124 37" id="svg1273293889"><g transform="translate(0.131 0.13)"><path d="M 0 37 L 0 0 L 122.889 0 L 122.889 37 Z" fill="transparent"></path><path d="M 21.142 16.92 C 20.8 17.259 20.539 17.669 20.376 18.119 C 20.213 18.57 20.153 19.051 20.199 19.527 L 20.183 19.511 C 20.231 20.072 20.154 20.636 19.959 21.165 C 19.763 21.694 19.453 22.174 19.051 22.571 C 18.648 22.969 18.162 23.276 17.627 23.469 C 17.092 23.662 16.521 23.738 15.954 23.691 L 15.97 23.707 C 15.291 23.644 14.61 23.79 14.018 24.125 C 13.426 24.459 12.953 24.966 12.663 25.576 C 12.374 26.186 12.281 26.869 12.399 27.533 C 12.517 28.196 12.839 28.808 13.321 29.284 C 13.803 29.76 14.422 30.078 15.094 30.193 C 15.766 30.309 16.457 30.217 17.074 29.93 C 17.691 29.643 18.203 29.176 18.541 28.59 C 18.879 28.005 19.026 27.332 18.962 26.661 L 18.979 26.677 C 18.931 26.116 19.008 25.552 19.203 25.023 C 19.399 24.495 19.709 24.015 20.112 23.617 C 20.514 23.219 21 22.912 21.535 22.719 C 22.07 22.526 22.641 22.45 23.208 22.497 L 23.191 22.482 C 23.746 22.531 24.304 22.441 24.814 22.22 C 25.324 22 25.769 21.655 26.109 21.219 C 26.448 20.783 26.671 20.27 26.756 19.726 C 26.841 19.182 26.786 18.626 26.596 18.109 C 26.405 17.592 26.086 17.131 25.667 16.768 C 25.249 16.405 24.744 16.153 24.201 16.035 C 23.657 15.916 23.092 15.935 22.558 16.09 C 22.023 16.244 21.537 16.53 21.144 16.92 Z" fill="var(--token-3ea41072-e4a3-4fbd-afee-986fdaa2559f, rgb(0, 0, 0)) /* {&quot;name&quot;:&quot;Black&quot;} */"></path><path d="M 14.493 21.605 L 14.476 21.589 C 14.958 21.637 15.445 21.579 15.902 21.418 C 16.359 21.257 16.773 20.998 17.116 20.66 C 17.459 20.321 17.722 19.911 17.885 19.46 C 18.048 19.009 18.107 18.528 18.059 18.051 L 18.076 18.067 C 18.028 17.506 18.105 16.942 18.3 16.413 C 18.496 15.885 18.806 15.405 19.209 15.007 C 19.611 14.609 20.097 14.303 20.632 14.109 C 21.167 13.916 21.738 13.84 22.305 13.888 L 22.288 13.872 C 22.967 13.935 23.649 13.789 24.241 13.455 C 24.833 13.121 25.307 12.614 25.597 12.005 C 25.887 11.395 25.98 10.712 25.862 10.048 C 25.745 9.384 25.423 8.772 24.941 8.296 C 24.459 7.819 23.84 7.501 23.168 7.386 C 22.497 7.27 21.805 7.361 21.188 7.648 C 20.571 7.935 20.058 8.402 19.72 8.988 C 19.382 9.573 19.235 10.247 19.299 10.918 L 19.283 10.901 C 19.331 11.461 19.254 12.026 19.059 12.554 C 18.863 13.083 18.553 13.563 18.15 13.961 C 17.748 14.359 17.262 14.665 16.727 14.859 C 16.192 15.052 15.621 15.127 15.053 15.08 L 15.07 15.097 C 14.587 15.049 14.1 15.107 13.644 15.268 C 13.187 15.429 12.772 15.688 12.429 16.027 C 12.086 16.365 11.824 16.775 11.661 17.226 C 11.498 17.677 11.438 18.158 11.487 18.635 L 11.47 18.619 C 11.518 19.18 11.441 19.744 11.246 20.273 C 11.05 20.801 10.74 21.281 10.338 21.679 C 9.935 22.077 9.449 22.383 8.914 22.576 C 8.38 22.77 7.809 22.846 7.241 22.798 L 7.258 22.814 C 6.579 22.751 5.897 22.897 5.305 23.231 C 4.712 23.565 4.239 24.072 3.949 24.681 C 3.659 25.291 3.566 25.974 3.683 26.638 C 3.801 27.302 4.122 27.914 4.605 28.39 C 5.087 28.867 5.706 29.185 6.377 29.301 C 7.049 29.416 7.741 29.325 8.358 29.038 C 8.975 28.751 9.487 28.284 9.825 27.699 C 10.163 27.113 10.311 26.439 10.247 25.769 L 10.264 25.784 C 10.216 25.224 10.293 24.659 10.488 24.131 C 10.684 23.602 10.994 23.122 11.396 22.724 C 11.799 22.326 12.285 22.02 12.82 21.827 C 13.355 21.634 13.926 21.558 14.493 21.605 Z" fill="var(--token-3ea41072-e4a3-4fbd-afee-986fdaa2559f, rgb(0, 0, 0)) /* {&quot;name&quot;:&quot;Black&quot;} */"></path><path d="M 8.457 19.819 C 8.798 19.479 9.06 19.07 9.223 18.619 C 9.385 18.168 9.445 17.687 9.398 17.211 L 9.416 17.227 C 9.368 16.666 9.444 16.101 9.64 15.573 C 9.836 15.044 10.146 14.564 10.549 14.166 C 10.951 13.768 11.437 13.462 11.972 13.269 C 12.507 13.075 13.079 13 13.646 13.048 L 13.629 13.032 C 14.308 13.094 14.99 12.949 15.581 12.615 C 16.173 12.281 16.646 11.774 16.936 11.165 C 17.226 10.555 17.319 9.872 17.202 9.209 C 17.084 8.545 16.763 7.933 16.281 7.457 C 15.799 6.981 15.18 6.663 14.508 6.547 C 13.837 6.431 13.146 6.523 12.529 6.809 C 11.912 7.096 11.4 7.563 11.062 8.148 C 10.724 8.733 10.576 9.407 10.64 10.077 L 10.624 10.061 C 10.672 10.622 10.595 11.187 10.399 11.715 C 10.204 12.244 9.894 12.724 9.491 13.122 C 9.089 13.52 8.603 13.826 8.068 14.019 C 7.533 14.212 6.962 14.288 6.395 14.241 L 6.411 14.257 C 5.856 14.208 5.298 14.298 4.788 14.518 C 4.278 14.739 3.833 15.083 3.494 15.52 C 3.154 15.955 2.932 16.469 2.847 17.013 C 2.762 17.557 2.817 18.113 3.007 18.63 C 3.198 19.147 3.517 19.608 3.936 19.97 C 4.354 20.333 4.859 20.585 5.403 20.704 C 5.946 20.822 6.511 20.803 7.046 20.649 C 7.58 20.494 8.066 20.208 8.459 19.819 Z" fill="var(--token-3ea41072-e4a3-4fbd-afee-986fdaa2559f, rgb(0, 0, 0)) /* {&quot;name&quot;:&quot;Black&quot;} */"></path><path d="M 118.28 11.974 C 117.925 11.974 117.629 11.948 117.394 11.897 C 117.168 11.845 116.981 11.755 116.833 11.626 C 116.694 11.497 116.594 11.321 116.533 11.097 C 116.481 10.874 116.454 10.586 116.454 10.233 C 116.454 9.881 116.481 9.593 116.533 9.369 C 116.594 9.137 116.694 8.953 116.833 8.815 C 116.981 8.677 117.168 8.583 117.394 8.531 C 117.629 8.48 117.925 8.454 118.28 8.454 C 118.637 8.454 118.929 8.48 119.155 8.531 C 119.389 8.583 119.577 8.677 119.716 8.815 C 119.855 8.953 119.951 9.137 120.004 9.369 C 120.055 9.593 120.081 9.881 120.081 10.233 C 120.081 10.586 120.055 10.874 120.004 11.097 C 119.951 11.321 119.855 11.497 119.716 11.626 C 119.577 11.755 119.389 11.845 119.155 11.897 C 118.929 11.948 118.637 11.974 118.28 11.974 Z M 116.728 14.282 L 119.834 14.282 L 119.834 27.887 L 116.728 27.887 Z" fill="var(--token-3ea41072-e4a3-4fbd-afee-986fdaa2559f, rgb(0, 0, 0)) /* {&quot;name&quot;:&quot;Black&quot;} */"></path><path d="M 100.239 14.282 L 103.331 14.282 L 103.331 23.554 C 103.331 23.915 103.353 24.22 103.397 24.469 C 103.449 24.719 103.553 24.925 103.71 25.088 C 103.866 25.243 104.092 25.359 104.388 25.436 C 104.684 25.505 105.079 25.54 105.575 25.54 C 106.097 25.54 106.571 25.514 106.997 25.462 C 107.423 25.402 107.789 25.338 108.093 25.269 C 108.45 25.183 108.772 25.088 109.059 24.985 L 109.059 14.282 L 112.151 14.282 L 112.151 27.886 L 109.88 27.886 L 109.515 26.881 C 109.028 27.147 108.502 27.384 107.937 27.59 C 107.449 27.762 106.884 27.921 106.241 28.067 C 105.606 28.213 104.932 28.286 104.218 28.286 C 102.87 28.286 101.87 27.934 101.218 27.229 C 100.566 26.515 100.239 25.406 100.239 23.902 Z" fill="var(--token-3ea41072-e4a3-4fbd-afee-986fdaa2559f, rgb(0, 0, 0)) /* {&quot;name&quot;:&quot;Black&quot;} */"></path><path d="M 86.07 25.269 C 86.453 25.355 86.879 25.432 87.349 25.501 C 87.749 25.561 88.219 25.613 88.758 25.656 C 89.306 25.699 89.906 25.72 90.558 25.72 C 91.271 25.72 91.837 25.694 92.254 25.643 C 92.672 25.591 92.985 25.505 93.193 25.385 C 93.411 25.256 93.55 25.084 93.611 24.869 C 93.672 24.654 93.702 24.383 93.702 24.057 C 93.702 23.885 93.689 23.73 93.663 23.593 C 93.646 23.446 93.594 23.318 93.507 23.206 C 93.428 23.085 93.306 22.986 93.141 22.909 C 92.985 22.823 92.772 22.759 92.502 22.716 L 89.619 22.187 C 88.958 22.075 88.401 21.925 87.949 21.736 C 87.497 21.547 87.131 21.297 86.853 20.988 C 86.583 20.67 86.388 20.283 86.266 19.827 C 86.153 19.363 86.096 18.8 86.096 18.138 C 86.096 16.711 86.575 15.649 87.531 14.953 C 88.497 14.248 89.871 13.896 91.654 13.896 C 92.28 13.896 92.854 13.934 93.376 14.012 C 93.907 14.08 94.368 14.162 94.759 14.257 C 95.211 14.36 95.624 14.476 95.998 14.605 L 95.998 16.797 C 95.581 16.728 95.146 16.668 94.694 16.616 C 94.302 16.573 93.863 16.53 93.376 16.487 C 92.898 16.445 92.411 16.423 91.915 16.423 C 91.35 16.423 90.88 16.449 90.506 16.5 C 90.132 16.543 89.836 16.621 89.619 16.732 C 89.401 16.844 89.249 16.99 89.162 17.171 C 89.075 17.343 89.032 17.562 89.032 17.829 C 89.032 18.035 89.049 18.22 89.084 18.383 C 89.119 18.546 89.193 18.693 89.306 18.821 C 89.419 18.95 89.575 19.062 89.775 19.157 C 89.975 19.251 90.245 19.329 90.584 19.389 L 93.572 19.943 C 94.154 20.055 94.646 20.201 95.046 20.382 C 95.455 20.562 95.785 20.807 96.038 21.117 C 96.29 21.426 96.472 21.822 96.585 22.303 C 96.698 22.776 96.755 23.36 96.755 24.057 C 96.755 24.719 96.685 25.312 96.546 25.836 C 96.416 26.361 96.146 26.803 95.737 27.164 C 95.329 27.526 94.75 27.801 94.002 27.99 C 93.254 28.187 92.267 28.286 91.041 28.286 C 90.362 28.286 89.723 28.239 89.123 28.145 C 88.523 28.058 87.997 27.96 87.544 27.848 C 87.014 27.719 86.523 27.573 86.07 27.409 Z" fill="var(--token-3ea41072-e4a3-4fbd-afee-986fdaa2559f, rgb(0, 0, 0)) /* {&quot;name&quot;:&quot;Black&quot;} */"></path><path d="M 72.555 25.269 C 72.937 25.355 73.363 25.432 73.833 25.501 C 74.233 25.561 74.703 25.613 75.242 25.656 C 75.79 25.699 76.39 25.72 77.042 25.72 C 77.756 25.72 78.321 25.694 78.738 25.643 C 79.156 25.591 79.469 25.505 79.678 25.385 C 79.895 25.256 80.034 25.084 80.095 24.869 C 80.156 24.654 80.187 24.383 80.187 24.057 C 80.187 23.885 80.173 23.73 80.147 23.593 C 80.13 23.446 80.078 23.318 79.991 23.206 C 79.913 23.085 79.791 22.986 79.626 22.909 C 79.469 22.823 79.256 22.759 78.986 22.716 L 76.103 22.187 C 75.442 22.075 74.885 21.925 74.433 21.736 C 73.981 21.547 73.616 21.297 73.337 20.988 C 73.068 20.67 72.872 20.283 72.75 19.827 C 72.637 19.363 72.581 18.8 72.581 18.138 C 72.581 16.711 73.059 15.649 74.016 14.953 C 74.981 14.248 76.355 13.896 78.138 13.896 C 78.765 13.896 79.339 13.934 79.86 14.012 C 80.391 14.08 80.852 14.162 81.243 14.257 C 81.696 14.36 82.109 14.476 82.483 14.605 L 82.483 16.797 C 82.065 16.728 81.63 16.668 81.178 16.616 C 80.787 16.573 80.347 16.53 79.86 16.487 C 79.382 16.445 78.895 16.423 78.399 16.423 C 77.834 16.423 77.364 16.449 76.99 16.5 C 76.616 16.543 76.321 16.621 76.103 16.732 C 75.886 16.844 75.733 16.99 75.647 17.171 C 75.56 17.343 75.516 17.562 75.516 17.829 C 75.516 18.035 75.533 18.22 75.568 18.383 C 75.603 18.546 75.677 18.693 75.79 18.821 C 75.903 18.95 76.06 19.062 76.26 19.157 C 76.46 19.251 76.729 19.329 77.069 19.389 L 80.056 19.943 C 80.639 20.055 81.13 20.201 81.53 20.382 C 81.939 20.562 82.27 20.807 82.522 21.117 C 82.774 21.426 82.957 21.822 83.07 22.303 C 83.183 22.776 83.239 23.36 83.239 24.057 C 83.239 24.719 83.17 25.312 83.031 25.836 C 82.9 26.361 82.631 26.803 82.222 27.164 C 81.813 27.526 81.235 27.801 80.487 27.99 C 79.739 28.187 78.751 28.286 77.525 28.286 C 76.847 28.286 76.207 28.239 75.607 28.145 C 75.007 28.058 74.481 27.96 74.029 27.848 C 73.498 27.719 73.007 27.573 72.555 27.409 Z" fill="var(--token-3ea41072-e4a3-4fbd-afee-986fdaa2559f, rgb(0, 0, 0)) /* {&quot;name&quot;:&quot;Black&quot;} */"></path><path d="M 57.122 24.031 C 57.122 23.257 57.235 22.604 57.461 22.071 C 57.696 21.538 58.009 21.108 58.4 20.782 C 58.801 20.455 59.266 20.218 59.796 20.072 C 60.336 19.926 60.914 19.853 61.532 19.853 C 62.158 19.853 62.723 19.887 63.228 19.956 C 63.741 20.025 64.184 20.102 64.558 20.188 C 64.984 20.283 65.372 20.39 65.719 20.511 L 65.719 19.247 C 65.719 18.929 65.706 18.662 65.68 18.448 C 65.663 18.224 65.628 18.031 65.576 17.867 C 65.524 17.704 65.45 17.566 65.354 17.455 C 65.267 17.343 65.158 17.235 65.028 17.132 C 64.75 16.934 64.367 16.793 63.88 16.707 C 63.393 16.621 62.758 16.578 61.975 16.578 C 61.479 16.578 60.997 16.595 60.527 16.629 C 60.066 16.655 59.653 16.689 59.288 16.732 C 58.862 16.775 58.457 16.823 58.074 16.874 L 58.074 14.734 C 58.422 14.596 58.853 14.472 59.366 14.36 C 59.801 14.265 60.344 14.179 60.997 14.102 C 61.649 14.016 62.423 13.973 63.319 13.973 C 63.919 13.973 64.45 13.999 64.91 14.05 C 65.38 14.093 65.793 14.171 66.15 14.282 C 66.506 14.394 66.82 14.54 67.089 14.721 C 67.368 14.901 67.615 15.125 67.833 15.391 C 68.016 15.615 68.168 15.851 68.289 16.101 C 68.411 16.35 68.511 16.642 68.59 16.977 C 68.668 17.313 68.72 17.7 68.746 18.138 C 68.781 18.568 68.798 19.071 68.798 19.647 L 68.798 27.887 L 66.176 27.887 L 65.941 26.881 C 65.558 27.147 65.137 27.384 64.676 27.59 C 64.276 27.762 63.806 27.921 63.267 28.067 C 62.736 28.213 62.149 28.286 61.506 28.286 C 60.723 28.286 60.053 28.209 59.496 28.054 C 58.94 27.899 58.483 27.654 58.127 27.319 C 57.779 26.984 57.522 26.546 57.357 26.004 C 57.2 25.462 57.122 24.805 57.122 24.031 Z M 60.292 24.031 C 60.292 24.409 60.34 24.71 60.436 24.934 C 60.531 25.157 60.671 25.329 60.853 25.449 C 61.036 25.561 61.258 25.634 61.519 25.669 C 61.788 25.703 62.093 25.72 62.432 25.72 C 62.875 25.72 63.293 25.682 63.684 25.604 C 64.084 25.518 64.436 25.428 64.741 25.333 C 65.089 25.222 65.415 25.093 65.719 24.947 L 65.719 22.587 C 65.441 22.535 65.141 22.488 64.819 22.445 C 64.541 22.402 64.223 22.368 63.867 22.342 C 63.519 22.307 63.149 22.29 62.758 22.29 C 62.323 22.29 61.949 22.312 61.636 22.355 C 61.332 22.389 61.079 22.471 60.879 22.6 C 60.679 22.72 60.531 22.896 60.436 23.128 C 60.34 23.352 60.292 23.653 60.292 24.031 Z" fill="var(--token-3ea41072-e4a3-4fbd-afee-986fdaa2559f, rgb(0, 0, 0)) /* {&quot;name&quot;:&quot;Black&quot;} */"></path><path d="M 35.217 9.485 L 40.644 9.485 L 44.088 20.575 L 44.192 20.575 L 47.754 9.485 L 53.09 9.485 L 53.09 27.886 L 49.972 27.886 L 49.972 12.361 L 49.893 12.361 L 49.541 13.522 C 49.446 13.848 49.341 14.192 49.228 14.553 C 49.115 14.906 49.015 15.211 48.928 15.469 L 46.528 22.896 L 41.844 22.896 L 39.391 15.417 C 39.304 15.159 39.204 14.858 39.091 14.514 C 38.978 14.162 38.874 13.827 38.778 13.509 C 38.665 13.139 38.548 12.756 38.426 12.361 L 38.348 12.361 L 38.348 27.886 L 35.217 27.886 Z" fill="var(--token-3ea41072-e4a3-4fbd-afee-986fdaa2559f, rgb(0, 0, 0)) /* {&quot;name&quot;:&quot;Black&quot;} */"></path></g></svg>
